<svg width="30" height="18" viewBox="0 0 30 18" fill="none" xmlns="http://www.w3.org/2000/svg">
<path d="M12.0491 7.55729L12.0858 8.54689C12.8596 8.54689 13.3911 8.78215 13.7703 9.10932C14.1588 9.44451 14.4206 9.90541 14.5933 10.4C14.7656 10.8936 14.8402 11.3952 14.8706 11.7791C14.8784 11.8782 14.8833 11.9686 14.8861 12.0478V12.4235C14.8861 13.6768 14.5617 14.5705 14.1035 15.2164C13.6423 15.8665 13.022 16.2985 12.382 16.5857C11.7403 16.8737 11.0916 17.01 10.5983 17.0734C10.353 17.1049 10.1496 17.118 10.0093 17.1232C9.93929 17.1258 9.88526 17.1264 9.84993 17.1264C9.83227 17.1264 9.8193 17.1263 9.81137 17.1261L9.8033 17.126L9.80305 17.126L9.80265 17.126L9.80237 17.126L9.80219 17.1259L9.79515 17.1257H9.78725H4.65682H4.50611H1.11572V0.5H4.50611H4.65682H9.78725C11.094 0.5 12.2136 0.860696 12.9989 1.54144C13.7736 2.21313 14.275 3.24091 14.275 4.69286C14.275 6.09777 13.6906 6.78152 13.1547 7.1356C12.8742 7.32094 12.5906 7.42569 12.3757 7.48366C12.269 7.51244 12.1816 7.52906 12.1233 7.53828C12.0942 7.54287 12.0726 7.5456 12.0597 7.54706L12.0471 7.54838L12.0477 7.54834L12.0482 7.5483C12.0483 7.5483 12.0483 7.54829 12.0491 7.55729ZM14.8869 12.3946C14.8869 12.395 14.8869 12.3949 14.887 12.3943L14.8869 12.3946ZM4.65682 2.63302H4.15682V3.13302V7.06613V7.56613H4.65682H9.46952C9.92223 7.56613 10.4894 7.49794 10.9223 7.05248C11.3457 6.61678 11.5344 5.9293 11.5344 4.96667C11.5344 3.92409 11.1717 3.30095 10.7072 2.9594C10.487 2.79755 10.2671 2.71666 10.1014 2.67605C10.0182 2.65565 9.94691 2.64496 9.89335 2.63934C9.86649 2.63652 9.84382 2.63494 9.82603 2.63407C9.81712 2.63363 9.80941 2.63337 9.80298 2.63322L9.79428 2.63306L9.79066 2.63303L9.78904 2.63302L9.78828 2.63302C9.78791 2.63302 9.78754 2.63302 9.78754 3.13302V2.63302H9.12718H4.65682ZM9.55081 14.9936V14.9938L9.56471 14.9934C9.9623 14.9823 10.6122 14.9155 11.1688 14.5092C11.7567 14.0801 12.1455 13.3456 12.1455 12.2037C12.1455 10.8328 11.6117 10.0591 10.9874 9.65644C10.6907 9.46511 10.3968 9.37279 10.1787 9.32775C10.0689 9.30509 9.97586 9.29388 9.90755 9.28833C9.87331 9.28555 9.84502 9.28418 9.82365 9.28351C9.81295 9.28318 9.80396 9.28302 9.7968 9.28296L9.78743 9.28293L9.78725 9.28294H9.78609H4.65682H4.15682V9.78294V14.4936V14.9936H4.65682H9.55081Z" fill="url(#paint0_linear_763_572)" stroke="url(#paint1_linear_763_572)"/>
<path d="M19.5615 2.70868V1.53802H25.8338V2.70868H19.5615Z" fill="url(#paint2_linear_763_572)" stroke="url(#paint3_linear_763_572)"/>
<path d="M16.5812 11.2567L16.5812 11.2571L16.5812 11.2574L16.5812 11.2575L16.5812 11.2742L16.5801 11.2907L16.5801 11.2908L16.5801 11.2911L16.58 11.2916L16.58 11.2922L16.5794 11.3023C16.5789 11.3121 16.5782 11.3279 16.5775 11.3494C16.5761 11.3924 16.5747 11.458 16.5754 11.5428C16.5767 11.7127 16.5861 11.9587 16.6187 12.2553C16.6843 12.851 16.8422 13.6361 17.2064 14.4142C17.569 15.1889 18.1333 15.9515 19.0144 16.5229C19.8946 17.0937 21.1243 17.4952 22.8537 17.4952H22.8679L16.5812 11.2567ZM16.5812 11.2567L16.5812 11.2558L16.5813 11.2454C16.5815 11.2353 16.5818 11.2192 16.5825 11.1974C16.584 11.1537 16.5869 11.0873 16.593 11.0014C16.6051 10.8296 16.6297 10.5808 16.6794 10.281C16.7794 9.67892 16.9786 8.88386 17.3728 8.09486C17.766 7.30783 18.3483 6.53598 19.213 5.95975C20.0746 5.38558 21.2462 4.98562 22.8534 4.98562C24.5427 4.98562 25.704 5.43644 26.512 6.07363C27.3251 6.71477 27.8227 7.57803 28.1221 8.46999C28.422 9.36366 28.516 10.2666 28.5331 10.9532C28.5397 11.2211 28.5346 11.4534 28.526 11.6362H19.8556H19.3556V12.1362C19.3556 13.0365 19.5699 13.7369 19.9228 14.2722C20.2748 14.8062 20.7427 15.1425 21.197 15.352C21.6482 15.56 22.0923 15.6463 22.4183 15.6819C22.5827 15.6998 22.7207 15.7053 22.8196 15.7061C22.8692 15.7065 22.9092 15.7058 22.9382 15.7049C22.9514 15.7045 22.9624 15.704 22.9709 15.7036C24.5422 15.7006 25.4181 15.1835 25.8749 14.5473C26.0633 14.2849 26.165 14.0225 26.2197 13.8077H28.3622C28.2782 14.6967 27.9703 15.3512 27.5593 15.8421C27.0677 16.4292 26.3997 16.8162 25.7 17.0681C25.0007 17.3198 24.2934 17.428 23.7552 17.4721C23.4876 17.494 23.2654 17.4998 23.1116 17.5002C23.0348 17.5004 22.9753 17.4992 22.9361 17.498C22.9164 17.4975 22.9019 17.4969 22.8928 17.4965L22.8833 17.4961L22.8822 17.496L22.8818 17.496L22.8816 17.496L16.5812 11.2567ZM26.1042 10.2837H25.6105H19.8206H19.246L19.3254 9.71461L19.8206 9.78366C19.3254 9.71461 19.3254 9.71436 19.3255 9.7141L19.3255 9.71353L19.3257 9.7122L19.3262 9.70878L19.3277 9.69899C19.3289 9.69117 19.3306 9.68078 19.3328 9.66799C19.3372 9.64242 19.3438 9.6072 19.353 9.56368C19.3713 9.47679 19.4003 9.35605 19.4443 9.21265C19.5317 8.92752 19.6809 8.54344 19.9293 8.15557C20.4365 7.36372 21.3567 6.56687 22.9221 6.56685L26.1042 10.2837ZM26.1042 10.2837L26.1105 9.79005L25.6105 9.78366M26.1042 10.2837L25.6105 9.78366M25.6105 9.78366C26.1105 9.79005 26.1105 9.78979 26.1105 9.78952M25.6105 9.78366L26.1105 9.78952M26.1105 9.78952L26.1105 9.78894M26.1105 9.78952L26.1105 9.78894M26.1105 9.78894L26.1105 9.78758M26.1105 9.78894L26.1105 9.78758M26.1105 9.78758L26.1105 9.7841M26.1105 9.78758L26.1105 9.7841M26.1105 9.7841L26.1105 9.77417M26.1105 9.7841L26.1105 9.77417M26.1105 9.77417C26.1105 9.76625 26.1104 9.75575 26.1101 9.74283M26.1105 9.77417L26.1101 9.74283M26.1101 9.74283C26.1096 9.71702 26.1084 9.68146 26.1058 9.63755M26.1101 9.74283L26.1058 9.63755M26.1058 9.63755C26.1007 9.54991 26.0899 9.42795 26.0675 9.28289M26.1058 9.63755L26.0675 9.28289M26.0675 9.28289C26.0232 8.99521 25.9311 8.60362 25.7368 8.20574M26.0675 9.28289L25.7368 8.20574M25.7368 8.20574C25.5415 7.80577 25.238 7.39026 24.7696 7.076M25.7368 8.20574L24.7696 7.076M24.7696 7.076C24.298 6.75971 23.6901 6.56678 22.9222 6.56685L24.7696 7.076ZM20.3156 9.85413L20.3157 9.85316L20.3157 9.85354L20.3156 9.85413Z" fill="url(#paint4_linear_763_572)" stroke="url(#paint5_linear_763_572)"/>
<defs>
<linearGradient id="paint0_linear_763_572" x1="0.615723" y1="0" x2="17.0443" y2="15.9189" gradientUnits="userSpaceOnUse">
<stop stop-color="#7270FF"/>
<stop offset="1" stop-color="#6002A9"/>
</linearGradient>
<linearGradient id="paint1_linear_763_572" x1="0.615723" y1="0" x2="17.0443" y2="15.9189" gradientUnits="userSpaceOnUse">
<stop stop-color="#7270FF"/>
<stop offset="1" stop-color="#6002A9"/>
</linearGradient>
<linearGradient id="paint2_linear_763_572" x1="19.0615" y1="1.03802" x2="20.0414" y2="4.83332" gradientUnits="userSpaceOnUse">
<stop stop-color="#7270FF"/>
<stop offset="1" stop-color="#6002A9"/>
</linearGradient>
<linearGradient id="paint3_linear_763_572" x1="19.0615" y1="1.03802" x2="20.0414" y2="4.83332" gradientUnits="userSpaceOnUse">
<stop stop-color="#7270FF"/>
<stop offset="1" stop-color="#6002A9"/>
</linearGradient>
<linearGradient id="paint4_linear_763_572" x1="16.0752" y1="4.48562" x2="28.6108" y2="18.3838" gradientUnits="userSpaceOnUse">
<stop stop-color="#7270FF"/>
<stop offset="1" stop-color="#6002A9"/>
</linearGradient>
<linearGradient id="paint5_linear_763_572" x1="16.0752" y1="4.48562" x2="28.6108" y2="18.3838" gradientUnits="userSpaceOnUse">
<stop stop-color="#7270FF"/>
<stop offset="1" stop-color="#6002A9"/>
</linearGradient>
</defs>
</svg>
