<svg width="30" height="18" viewBox="0 0 30 18" fill="none" xmlns="http://www.w3.org/2000/svg">
<path d="M12.0486 7.55729L12.0853 8.54689C12.8591 8.54689 13.3906 8.78215 13.7698 9.10932C14.1584 9.44451 14.4201 9.90541 14.5928 10.4C14.7651 10.8936 14.8397 11.3952 14.8701 11.7791C14.8779 11.8782 14.8828 11.9686 14.8856 12.0478V12.4235C14.8856 13.6768 14.5613 14.5705 14.103 15.2164C13.6418 15.8665 13.0215 16.2985 12.3815 16.5857C11.7398 16.8737 11.0911 17.01 10.5979 17.0734C10.3525 17.1049 10.1491 17.118 10.0088 17.1232C9.9388 17.1258 9.88477 17.1264 9.84944 17.1264C9.83178 17.1264 9.81882 17.1263 9.81089 17.1261L9.80282 17.126L9.80257 17.126L9.80216 17.126L9.80188 17.126L9.8017 17.1259L9.79466 17.1257H9.78676H4.65633H4.50563H1.11523V0.5H4.50563H4.65633H9.78676C11.0935 0.5 12.2132 0.860696 12.9984 1.54144C13.7732 2.21313 14.2745 3.24091 14.2745 4.69286C14.2745 6.09777 13.6902 6.78152 13.1543 7.1356C12.8737 7.32094 12.5902 7.42569 12.3753 7.48366C12.2686 7.51244 12.1811 7.52906 12.1228 7.53828C12.0937 7.54287 12.0721 7.5456 12.0592 7.54706L12.0466 7.54838L12.0472 7.54834L12.0477 7.5483C12.0478 7.5483 12.0479 7.54829 12.0486 7.55729ZM14.8864 12.3946C14.8864 12.395 14.8864 12.3949 14.8865 12.3943L14.8864 12.3946ZM4.65633 2.63302H4.15633V3.13302V7.06613V7.56613H4.65633H9.46904C9.92174 7.56613 10.4889 7.49794 10.9218 7.05248C11.3452 6.61678 11.5339 5.9293 11.5339 4.96667C11.5339 3.92409 11.1712 3.30095 10.7067 2.9594C10.4866 2.79755 10.2666 2.71666 10.1009 2.67605C10.0177 2.65565 9.94642 2.64496 9.89286 2.63934C9.866 2.63652 9.84333 2.63494 9.82554 2.63407C9.81663 2.63363 9.80892 2.63337 9.80249 2.63322L9.79379 2.63306L9.79018 2.63303L9.78855 2.63302L9.78779 2.63302C9.78742 2.63302 9.78705 2.63302 9.78705 3.13302V2.63302H9.12669H4.65633ZM9.55032 14.9936V14.9938L9.56423 14.9934C9.96181 14.9823 10.6117 14.9155 11.1684 14.5092C11.7562 14.0801 12.145 13.3456 12.145 12.2037C12.145 10.8328 11.6112 10.0591 10.9869 9.65644C10.6902 9.46511 10.3963 9.37279 10.1782 9.32775C10.0684 9.30509 9.97537 9.29388 9.90707 9.28833C9.87282 9.28555 9.84453 9.28418 9.82316 9.28351C9.81246 9.28318 9.80347 9.28302 9.79631 9.28296L9.78694 9.28293L9.78676 9.28294H9.7856H4.65633H4.15633V9.78294V14.4936V14.9936H4.65633H9.55032Z" fill="url(#paint0_linear_763_520)" stroke="url(#paint1_linear_763_520)"/>
<path d="M19.5605 2.70868V1.53802H25.8329V2.70868H19.5605Z" fill="url(#paint2_linear_763_520)" stroke="url(#paint3_linear_763_520)"/>
<path d="M16.5802 11.2567L16.5802 11.2571L16.5802 11.2574L16.5802 11.2575L16.5802 11.2742L16.5791 11.2907L16.5791 11.2908L16.5791 11.2911L16.579 11.2916L16.579 11.2922L16.5785 11.3023C16.578 11.3121 16.5772 11.3279 16.5765 11.3494C16.5751 11.3924 16.5737 11.458 16.5744 11.5428C16.5757 11.7127 16.5851 11.9587 16.6177 12.2553C16.6833 12.851 16.8412 13.6361 17.2054 14.4142C17.5681 15.1889 18.1323 15.9515 19.0134 16.5229C19.8936 17.0937 21.1233 17.4952 22.8527 17.4952H22.867L16.5802 11.2567ZM16.5802 11.2567L16.5802 11.2558L16.5804 11.2454C16.5805 11.2353 16.5808 11.2192 16.5816 11.1974C16.583 11.1537 16.5859 11.0873 16.592 11.0014C16.6041 10.8296 16.6287 10.5808 16.6785 10.281C16.7784 9.67892 16.9776 8.88386 17.3718 8.09486C17.765 7.30783 18.3473 6.53598 19.212 5.95975C20.0736 5.38558 21.2452 4.98562 22.8524 4.98562C24.5418 4.98562 25.703 5.43644 26.511 6.07363C27.3241 6.71477 27.8217 7.57803 28.1211 8.46999C28.4211 9.36366 28.5151 10.2666 28.5321 10.9532C28.5387 11.2211 28.5336 11.4534 28.525 11.6362H19.8546H19.3546V12.1362C19.3546 13.0365 19.5689 13.7369 19.9218 14.2722C20.2738 14.8062 20.7417 15.1425 21.1961 15.352C21.6472 15.56 22.0913 15.6463 22.4173 15.6819C22.5817 15.6998 22.7197 15.7053 22.8187 15.7061C22.8682 15.7065 22.9083 15.7058 22.9372 15.7049C22.9505 15.7045 22.9614 15.704 22.9699 15.7036C24.5412 15.7006 25.4171 15.1835 25.8739 14.5473C26.0623 14.2849 26.164 14.0225 26.2187 13.8077H28.3612C28.2772 14.6967 27.9693 15.3512 27.5583 15.8421C27.0667 16.4292 26.3988 16.8162 25.699 17.0681C24.9997 17.3198 24.2924 17.428 23.7543 17.4721C23.4866 17.494 23.2644 17.4998 23.1106 17.5002C23.0338 17.5004 22.9743 17.4992 22.9351 17.498C22.9155 17.4975 22.9009 17.4969 22.8918 17.4965L22.8823 17.4961L22.8812 17.496L22.8809 17.496L22.8807 17.496L16.5802 11.2567ZM26.1032 10.2837H25.6095H19.8196H19.2451L19.3244 9.71461L19.8196 9.78366C19.3244 9.71461 19.3245 9.71436 19.3245 9.7141L19.3246 9.71353L19.3248 9.7122L19.3253 9.70878L19.3267 9.69899C19.328 9.69117 19.3296 9.68078 19.3319 9.66799C19.3363 9.64242 19.3428 9.6072 19.352 9.56368C19.3703 9.47679 19.3994 9.35605 19.4433 9.21265C19.5307 8.92752 19.6799 8.54344 19.9284 8.15557C20.4356 7.36372 21.3557 6.56687 22.9211 6.56685L26.1032 10.2837ZM26.1032 10.2837L26.1095 9.79005L25.6095 9.78366M26.1032 10.2837L25.6095 9.78366M25.6095 9.78366C26.1095 9.79005 26.1095 9.78979 26.1095 9.78952M25.6095 9.78366L26.1095 9.78952M26.1095 9.78952L26.1095 9.78894M26.1095 9.78952L26.1095 9.78894M26.1095 9.78894L26.1095 9.78758M26.1095 9.78894L26.1095 9.78758M26.1095 9.78758L26.1095 9.7841M26.1095 9.78758L26.1095 9.7841M26.1095 9.7841L26.1095 9.77417M26.1095 9.7841L26.1095 9.77417M26.1095 9.77417C26.1095 9.76625 26.1094 9.75575 26.1091 9.74283M26.1095 9.77417L26.1091 9.74283M26.1091 9.74283C26.1086 9.71702 26.1074 9.68146 26.1048 9.63755M26.1091 9.74283L26.1048 9.63755M26.1048 9.63755C26.0997 9.54991 26.0889 9.42795 26.0666 9.28289M26.1048 9.63755L26.0666 9.28289M26.0666 9.28289C26.0222 8.99521 25.9301 8.60362 25.7358 8.20574M26.0666 9.28289L25.7358 8.20574M25.7358 8.20574C25.5405 7.80577 25.2371 7.39026 24.7686 7.076M25.7358 8.20574L24.7686 7.076M24.7686 7.076C24.2971 6.75971 23.6891 6.56678 22.9212 6.56685L24.7686 7.076ZM20.3146 9.85413L20.3148 9.85316L20.3147 9.85354L20.3146 9.85413Z" fill="url(#paint4_linear_763_520)" stroke="url(#paint5_linear_763_520)"/>
<defs>
<linearGradient id="paint0_linear_763_520" x1="0.615234" y1="0" x2="15.7915" y2="0.353343" gradientUnits="userSpaceOnUse">
<stop stop-color="#FFA77A"/>
<stop offset="1" stop-color="#F2BD34"/>
</linearGradient>
<linearGradient id="paint1_linear_763_520" x1="0.615234" y1="0" x2="15.7915" y2="0.353343" gradientUnits="userSpaceOnUse">
<stop stop-color="#FFA77A"/>
<stop offset="1" stop-color="#F2BD34"/>
</linearGradient>
<linearGradient id="paint2_linear_763_520" x1="19.0605" y1="1.03802" x2="26.4707" y2="1.72764" gradientUnits="userSpaceOnUse">
<stop stop-color="#FFA77A"/>
<stop offset="1" stop-color="#F2BD34"/>
</linearGradient>
<linearGradient id="paint3_linear_763_520" x1="19.0605" y1="1.03802" x2="26.4707" y2="1.72764" gradientUnits="userSpaceOnUse">
<stop stop-color="#FFA77A"/>
<stop offset="1" stop-color="#F2BD34"/>
</linearGradient>
<linearGradient id="paint4_linear_763_520" x1="16.0742" y1="4.48562" x2="29.3857" y2="4.84023" gradientUnits="userSpaceOnUse">
<stop stop-color="#FFA77A"/>
<stop offset="1" stop-color="#F2BD34"/>
</linearGradient>
<linearGradient id="paint5_linear_763_520" x1="16.0742" y1="4.48562" x2="29.3857" y2="4.84023" gradientUnits="userSpaceOnUse">
<stop stop-color="#FFA77A"/>
<stop offset="1" stop-color="#F2BD34"/>
</linearGradient>
</defs>
</svg>
