<svg width="12" height="16" viewBox="0 0 12 16" fill="none" xmlns="http://www.w3.org/2000/svg">
<path fill-rule="evenodd" clip-rule="evenodd" d="M6.20894 2.17724C8.05626 0.733261 8.97993 0.0112696 9.76001 0.000236511C10.4382 -0.00935555 11.0834 0.274096 11.5096 0.768902C12 1.33808 12 2.46587 12 4.72145L12 11.2786C12 13.5341 12 14.6619 11.5096 15.2311C11.0834 15.7259 10.4382 16.0094 9.76001 15.9998C8.97993 15.9887 8.05626 15.2667 6.20893 13.8228L2.01458 10.5442C0.896808 9.67048 0.33792 9.23362 0.134108 8.71058C-0.0447025 8.25171 -0.0447025 7.7483 0.134108 7.28942C0.33792 6.76638 0.896808 6.32952 2.01459 5.4558L6.20894 2.17724Z" fill="url(#paint0_linear_251_876)"/>
<defs>
<linearGradient id="paint0_linear_251_876" x1="12" y1="16" x2="11.3918" y2="-0.421919" gradientUnits="userSpaceOnUse">
<stop stop-color="#FFA77A"/>
<stop offset="1" stop-color="#F2BD34"/>
</linearGradient>
</defs>
</svg>
