<svg width="12" height="16" viewBox="0 0 12 16" fill="none" xmlns="http://www.w3.org/2000/svg">
<path fill-rule="evenodd" clip-rule="evenodd" d="M5.79106 2.17724C3.94374 0.733261 3.02007 0.0112696 2.23999 0.000236511C1.56184 -0.00935555 0.916649 0.274096 0.490363 0.768902C9.20713e-07 1.33808 8.21634e-07 2.46587 6.1141e-07 4.72145L2.74457e-10 11.2786C-2.0995e-07 13.5341 -2.95943e-07 14.6619 0.490362 15.2311C0.916648 15.7259 1.56183 16.0094 2.23999 15.9998C3.02007 15.9887 3.94374 15.2667 5.79107 13.8228L9.98542 10.5442C11.1032 9.67048 11.6621 9.23362 11.8659 8.71058C12.0447 8.25171 12.0447 7.7483 11.8659 7.28942C11.6621 6.76638 11.1032 6.32952 9.98541 5.4558L5.79106 2.17724Z" fill="url(#paint0_linear_251_877)"/>
<defs>
<linearGradient id="paint0_linear_251_877" x1="0" y1="16" x2="0.608219" y2="-0.421919" gradientUnits="userSpaceOnUse">
<stop stop-color="#FFA77A"/>
<stop offset="1" stop-color="#F2BD34"/>
</linearGradient>
</defs>
</svg>
