<?xml version="1.0" standalone="no"?>
<!DOCTYPE svg PUBLIC "-//W3C//DTD SVG 20010904//EN"
 "http://www.w3.org/TR/2001/REC-SVG-20010904/DTD/svg10.dtd">
<svg version="1.0" xmlns="http://www.w3.org/2000/svg"
 width="968.000000pt" height="968.000000pt" viewBox="0 0 968.000000 968.000000"
 preserveAspectRatio="xMidYMid meet">
<metadata>
Created by potrace 1.14, written by Peter Selinger 2001-2017
</metadata>
<g transform="translate(0.000000,968.000000) scale(0.100000,-0.100000)"
fill="#000000" stroke="none">
<path d="M2915 7601 c-2 -2 -37 -5 -77 -7 -119 -7 -274 -23 -348 -38 -14 -3
-41 -7 -60 -10 -19 -3 -46 -8 -60 -11 -14 -3 -36 -8 -50 -11 -46 -9 -219 -56
-255 -68 -5 -2 -20 -7 -32 -11 -13 -4 -23 -10 -24 -14 0 -3 -2 -13 -4 -21 -64
-282 -78 -411 -79 -750 -1 -209 7 -386 18 -460 3 -14 7 -52 11 -85 6 -57 31
-238 39 -280 8 -38 38 -180 43 -200 3 -11 7 -35 10 -52 3 -18 9 -33 15 -33 5
0 7 -4 4 -9 -11 -17 137 -462 177 -536 6 -11 12 -22 12 -25 2 -7 55 -121 68
-145 6 -11 27 -51 47 -90 48 -91 62 -116 78 -133 7 -7 10 -18 7 -23 -4 -5 -3
-9 2 -9 4 0 24 -27 43 -60 19 -33 38 -60 43 -60 4 0 7 -4 7 -10 0 -21 138
-204 290 -384 64 -75 400 -405 400 -392 0 3 11 -6 25 -20 27 -27 28 -43 5
-114 -6 -19 -13 -42 -15 -51 -2 -8 -10 -44 -19 -80 -8 -35 -18 -76 -21 -91 -3
-16 -7 -38 -9 -50 -6 -27 -15 -89 -22 -138 -15 -118 -19 -162 -19 -222 0 -38
-4 -68 -8 -68 -5 0 -5 -4 -2 -10 11 -19 14 -50 4 -55 -5 -4 -7 -11 -3 -16 3
-5 7 -35 10 -67 10 -141 25 -208 67 -322 27 -72 101 -185 152 -233 43 -40 259
-187 275 -187 6 0 10 -4 10 -9 0 -5 9 -13 20 -16 11 -3 26 -12 32 -19 7 -6 31
-23 53 -36 22 -13 42 -27 45 -30 3 -4 28 -20 55 -36 28 -16 86 -53 130 -83
114 -78 400 -216 490 -236 11 -3 45 -11 75 -20 30 -8 67 -16 83 -17 16 -1 30
-5 32 -8 2 -4 39 -6 82 -5 180 4 267 66 361 260 66 136 73 151 87 205 1 3 5
14 9 25 22 58 24 63 60 205 12 44 36 172 41 215 4 28 8 57 10 65 10 35 19 217
19 372 l1 168 27 9 c14 5 29 7 32 4 3 -4 6 -1 6 6 0 7 4 10 10 6 5 -3 17 -1
27 4 10 6 63 24 118 42 55 17 116 38 135 46 97 42 247 126 262 148 5 6 8 6 8
0 0 -5 5 -2 11 8 5 9 15 17 21 17 18 0 118 82 207 171 169 167 258 287 350
467 84 166 100 215 156 457 15 66 31 123 34 128 4 4 45 9 92 12 46 2 84 5 84
6 0 0 11 2 25 3 72 8 147 17 166 20 12 3 38 7 58 10 31 5 79 15 206 41 8 2 15
4 15 5 0 2 13 5 51 14 35 7 233 75 273 92 131 58 268 132 328 177 133 99 165
160 159 309 -4 99 -8 125 -25 156 -6 11 -8 21 -6 24 9 9 -123 312 -144 328 -3
3 -15 23 -26 44 -11 22 -26 47 -33 55 -7 9 -12 20 -11 25 0 5 -3 12 -8 15 -5
3 -34 40 -65 81 -49 66 -66 88 -108 137 -5 7 -10 15 -10 18 0 4 -6 12 -12 19
-13 12 -22 24 -110 139 -26 34 -57 72 -68 84 -11 12 -20 27 -20 32 0 5 -3 11
-7 13 -5 2 -28 29 -52 61 -25 32 -65 78 -91 103 -46 45 -133 104 -151 104 -5
0 -20 6 -32 14 -29 20 -165 54 -252 64 -148 17 -283 7 -560 -42 -11 -2 -38 -9
-60 -14 -22 -6 -51 -13 -65 -16 -47 -10 -155 -44 -255 -81 -55 -20 -107 -38
-115 -41 -9 -3 -54 33 -118 95 -57 55 -122 115 -145 133 -22 18 -56 47 -74 65
-18 17 -33 30 -33 27 0 -4 -29 19 -54 42 -28 25 -255 184 -264 184 -6 0 -12 4
-14 8 -1 5 -43 32 -93 61 -49 29 -97 56 -105 61 -17 10 -273 136 -305 150 -11
5 -41 18 -67 29 -26 12 -53 21 -61 21 -7 0 -17 3 -21 7 -3 4 -23 13 -44 20
-38 14 -161 55 -174 59 -5 1 -9 2 -10 4 -2 1 -10 3 -18 5 -8 2 -42 11 -75 20
-56 16 -198 50 -255 61 -14 2 -38 7 -55 11 -52 11 -179 29 -255 37 -14 1 -30
4 -35 7 -6 3 -34 5 -62 4 -29 0 -53 2 -53 5 0 3 -28 5 -63 5 -34 0 -66 2 -72
4 -11 6 -485 8 -490 2z m1060 -774 c11 -2 38 -8 60 -11 49 -9 129 -33 170 -50
52 -22 180 -89 185 -96 3 -4 10 -9 16 -11 33 -12 193 -159 249 -229 49 -61
131 -200 118 -200 -4 0 -3 -4 2 -8 14 -9 55 -109 55 -133 0 -10 5 -21 10 -24
6 -4 8 -11 5 -16 -4 -5 -3 -15 1 -21 5 -7 9 -19 10 -28 2 -8 5 -31 8 -50 3
-19 8 -63 11 -96 2 -34 5 -66 6 -70 1 -5 1 -11 0 -14 -2 -6 -13 -140 -15 -182
0 -16 -5 -28 -9 -28 -5 0 -7 -6 -4 -12 2 -7 -2 -25 -10 -40 -7 -16 -11 -28 -8
-28 13 0 -65 -185 -97 -229 -10 -13 -15 -27 -12 -32 3 -5 2 -9 -3 -9 -4 0 -19
-17 -33 -37 -14 -21 -36 -51 -50 -68 -34 -41 -172 -175 -180 -175 -4 0 -19
-11 -34 -24 -32 -27 -195 -112 -208 -108 -4 1 -8 -2 -8 -7 0 -5 -15 -12 -32
-16 -18 -4 -35 -9 -38 -10 -146 -52 -362 -64 -542 -29 -15 3 -30 5 -33 5 -2 0
-20 6 -40 15 -19 8 -35 12 -35 9 0 -4 -6 -3 -12 2 -7 4 -17 8 -23 9 -5 1 -37
14 -70 29 -33 15 -62 26 -64 25 -2 -1 -7 2 -10 7 -3 5 -26 21 -51 35 -25 14
-56 36 -69 47 -13 12 -27 21 -30 21 -7 0 -127 116 -161 156 -45 53 -109 154
-140 220 -37 80 -83 215 -75 222 2 3 0 11 -5 17 -6 7 -11 40 -13 74 -1 33 -5
61 -8 61 -6 0 -6 190 1 190 3 0 6 22 7 49 7 141 119 395 230 522 82 94 225
219 251 219 6 0 12 4 14 9 4 10 128 74 128 65 0 -3 7 2 16 10 8 9 23 16 33 16
10 0 21 3 25 8 4 4 11 7 14 8 4 0 27 6 52 13 92 27 188 38 305 35 66 -1 129
-4 140 -7z"/>
<path d="M3788 6484 c-3 -2 -25 -7 -49 -9 -231 -23 -450 -176 -552 -385 -29
-58 -59 -140 -52 -140 2 0 -2 -17 -8 -37 -11 -32 -16 -230 -7 -248 3 -6 2 -4
15 -60 11 -51 11 -52 46 -130 81 -186 284 -345 492 -388 70 -14 210 -15 282
-2 56 10 158 50 220 85 68 39 175 138 214 198 17 26 34 52 39 57 17 22 64 142
78 200 12 54 15 214 3 274 -14 76 -68 222 -89 241 -3 3 -18 24 -34 48 -42 62
-110 126 -186 177 -37 25 -70 45 -73 45 -2 0 -22 8 -43 17 -22 9 -41 17 -44
18 -3 1 -23 7 -46 13 -22 6 -73 14 -114 18 -41 3 -77 7 -81 10 -3 2 -8 1 -11
-2z"/>
<path d="M7239 3996 c-65 -50 -84 -78 -155 -225 -36 -74 -83 -166 -106 -205
-23 -39 -41 -73 -39 -75 1 -2 -1 -7 -6 -10 -5 -3 -31 -40 -58 -81 -27 -41 -61
-88 -75 -104 -48 -56 -125 -140 -152 -168 -16 -15 -28 -29 -28 -31 0 -10 -108
-112 -173 -165 -40 -31 -74 -59 -77 -62 -3 -3 -27 -21 -55 -40 -27 -19 -52
-38 -53 -42 -2 -5 -8 -6 -13 -2 -5 3 -9 1 -9 -4 0 -5 -8 -12 -17 -16 -21 -6
-51 -25 -71 -43 -7 -7 -19 -13 -27 -13 -7 0 -15 -4 -17 -9 -1 -5 -31 -23 -66
-40 -66 -33 -198 -154 -187 -171 3 -6 2 -10 -3 -10 -14 0 -20 -56 -9 -77 11
-19 73 -81 212 -208 48 -44 101 -93 119 -109 17 -16 71 -65 120 -110 49 -44
96 -89 105 -99 24 -27 79 -59 94 -54 6 2 21 1 33 -4 45 -16 175 83 194 149 22
74 25 99 25 220 0 67 3 122 6 122 3 0 50 -10 105 -21 54 -12 111 -23 126 -24
14 -2 32 -6 39 -11 7 -4 22 -9 33 -10 12 -1 32 -5 46 -8 14 -3 42 -8 63 -11
20 -3 56 -8 80 -11 109 -14 250 -19 294 -9 104 22 135 62 136 178 1 71 -15
232 -23 232 -1 0 -3 11 -5 25 -1 14 -10 54 -20 90 -9 36 -18 70 -20 75 -1 6
-5 17 -8 25 -4 8 -17 53 -31 100 -13 47 -29 97 -35 113 -6 15 -8 27 -5 27 4 0
1 7 -6 15 -7 8 -9 15 -5 15 4 0 2 7 -5 15 -17 20 -8 22 116 29 135 8 225 36
277 87 22 21 36 39 31 39 -5 0 -4 4 1 8 11 7 36 57 42 82 2 8 1 34 -2 57 -6
43 -18 57 -141 170 -23 21 -82 75 -130 120 -49 45 -102 94 -119 108 -16 15
-55 51 -85 79 -138 128 -148 136 -183 136 -23 0 -48 -11 -78 -34z"/>
</g>
</svg>
