<svg width="29" height="18" viewBox="0 0 29 18" fill="none" xmlns="http://www.w3.org/2000/svg">
<path fill-rule="evenodd" clip-rule="evenodd" d="M11.47 8.04689C11.47 8.04689 14.1593 7.84724 14.1593 4.69286C14.1593 1.53877 11.9589 0 9.17152 0H4.04109H3.89039H0V17.6257H3.89039H4.04109H9.17152C9.17152 17.6257 14.7704 17.8028 14.7704 12.4235C14.7707 12.4235 15.0148 8.04689 11.47 8.04689ZM4.04109 3.13302H8.51146H9.17182C9.17182 3.13302 10.4187 3.13302 10.4187 4.96667C10.4187 6.80033 9.68504 7.06613 8.8538 7.06613H4.04109V3.13302ZM8.93509 14.4936H4.04109V9.78294H9.17152C9.17152 9.78294 11.0298 9.75921 11.0298 12.2037C11.0298 14.242 9.6708 14.4731 8.93509 14.4936ZM25.7181 1.03796H18.4457V3.20862H25.7181V1.03796ZM15.4654 11.2571C15.4654 11.2571 15.4594 4.4856 22.2375 4.4856C29.3716 4.4856 28.3724 12.1361 28.3724 12.1361H19.2398C19.2398 15.411 22.3413 15.2036 22.3413 15.2036C25.2709 15.2036 25.1673 13.3077 25.1673 13.3077H28.2692C28.2692 18.3399 22.2378 17.9952 22.2378 17.9952C15.0008 17.9952 15.4654 11.2571 15.4654 11.2571ZM19.2048 9.78364H24.9947C24.9947 9.78364 25.0294 7.06653 22.3063 7.06683C19.5836 7.06683 19.2048 9.78364 19.2048 9.78364Z" fill="#121212"/>
</svg>
