<svg xmlns="http://www.w3.org/2000/svg" xmlns:xlink="http://www.w3.org/1999/xlink"><defs><linearGradient id="paint0_linear_615_1462" x1="0" y1="0" x2="18.456" y2="21.336" gradientUnits="userSpaceOnUse"><stop stop-color="#7270FF"/><stop offset="1" stop-color="#6002A9"/></linearGradient><linearGradient id="paint1_linear_615_1462" x1="0" y1="22" x2=".572" y2="25.64" gradientUnits="userSpaceOnUse"><stop stop-color="#7270FF"/><stop offset="1" stop-color="#6002A9"/></linearGradient><linearGradient id="paint0_linear_615_1628" x1="0" y1="0" x2="20.54" y2=".571" gradientUnits="userSpaceOnUse"><stop stop-color="#FFA77A"/><stop offset="1" stop-color="#F2BD34"/></linearGradient><linearGradient id="paint1_linear_615_1628" x1="0" y1="22" x2="11.048" y2="23.688" gradientUnits="userSpaceOnUse"><stop stop-color="#FFA77A"/><stop offset="1" stop-color="#F2BD34"/></linearGradient><linearGradient id="paint0_linear_615_1388" x1="0" y1="0" x2="18.456" y2="21.336" gradientUnits="userSpaceOnUse"><stop stop-color="#7270FF"/><stop offset="1" stop-color="#6002A9"/></linearGradient><linearGradient id="paint0_linear_615_1581" x1="0" y1="0" x2="20.54" y2=".571" gradientUnits="userSpaceOnUse"><stop stop-color="#FFA77A"/><stop offset="1" stop-color="#F2BD34"/></linearGradient></defs><symbol id="arrow-left" viewBox="0 0 12 16"><path d="M12 0L0 7.784 12 16V0z"/></symbol><symbol id="arrow-right" viewBox="0 0 12 16"><path d="M0 0l12 7.784L0 16V0z"/></symbol><symbol id="be" viewBox="0 0 29 18"><path fill-rule="evenodd" clip-rule="evenodd" d="M11.47 8.047s2.69-.2 2.69-3.354S11.958 0 9.171 0H0v17.626h9.171s5.6.177 5.6-5.203c0 0 .244-4.376-3.301-4.376zM4.041 3.133h5.13s1.248 0 1.248 1.834c0 1.833-.734 2.1-1.565 2.1H4.04V3.132zm4.894 11.36H4.041v-4.71h5.13s1.859-.024 1.859 2.42c0 2.039-1.36 2.27-2.095 2.29zM25.718 1.039h-7.272v2.17h7.272v-2.17zm-10.253 10.22s-.006-6.772 6.773-6.772c7.134 0 6.134 7.65 6.134 7.65H19.24c0 3.275 3.101 3.068 3.101 3.068 2.93 0 2.826-1.896 2.826-1.896h3.102c0 5.032-6.031 4.687-6.031 4.687-7.237 0-6.773-6.738-6.773-6.738zm3.74-1.474h5.79s.034-2.717-2.689-2.717c-2.722 0-3.101 2.717-3.101 2.717z"/></symbol><symbol id="check" viewBox="0 0 13 10"><path d="M10.352 0L4.244 6.204 1.867 3.793 0 5.689 4.244 10l7.978-8.104L10.352 0z"/></symbol><symbol id="column-icon" viewBox="0 0 20 24"><path d="M0 0h20v20H0V0z"/><path d="M0 22h11v2H0z"/></symbol><symbol id="column-icon_black" viewBox="0 0 20 24"><path d="M0 0h20v20H0V0z"/><path d="M0 22h11v2H0z"/></symbol><symbol id="square-icon" viewBox="0 0 20 20"><path fill-rule="evenodd" clip-rule="evenodd" d="M8.889 0H0v8.889h8.889V0zm0 11.111H0V20h8.889v-8.889zM11.11 0H20v8.889h-8.889V0zM20 11.111h-8.889V20H20v-8.889z"/></symbol><symbol id="square-icon__black" viewBox="0 0 20 20"><path fill-rule="evenodd" clip-rule="evenodd" d="M8.889 0H0v8.889h8.889V0zm0 11.111H0V20h8.889v-8.889zM11.11 0H20v8.889h-8.889V0zM20 11.111h-8.889V20H20v-8.889z"/></symbol><symbol id="telegram" viewBox="0 0 28 24"><path fill-rule="evenodd" clip-rule="evenodd" d="M1.925 10.332C9.44 6.945 14.453 4.712 16.96 3.633 24.12.553 25.609.018 26.578 0c.214-.004.69.051 1 .31.26.22.332.515.366.722.035.208.078.68.044 1.05-.389 4.217-2.067 14.45-2.921 19.172-.362 1.998-1.074 2.668-1.762 2.734-1.498.143-2.635-1.023-4.085-2.006-2.27-1.539-3.551-2.497-5.754-3.998-2.545-1.735-.895-2.689.556-4.247.38-.408 6.976-6.614 7.104-7.177.016-.07.03-.333-.12-.471-.15-.139-.373-.092-.534-.054-.228.053-3.853 2.532-10.875 7.435-1.03.73-1.961 1.086-2.796 1.068-.92-.02-2.692-.539-4.008-.981-1.615-.543-2.898-.83-2.786-1.752.058-.48.697-.971 1.918-1.473z"/></symbol></svg>